####
#
# OBJ File Generated by Meshlab
#
####
# Object Shelf_ElementSizing_30.obj
#
# Vertices: 128
# Faces: 98
#
####
vn 0.000028 -0.000036 1.000000
v 99.999901 -99.999603 -59.200199 0.752941 0.752941 0.752941
vn 0.000005 -0.000010 1.000000
v 71.427902 -99.999100 -59.199402 0.752941 0.752941 0.752941
vn -0.000005 -0.000007 1.000000
v 99.999397 -66.399597 -59.199001 0.752941 0.752941 0.752941
vn -0.000014 0.000002 1.000000
v 71.428200 -66.399696 -59.199402 0.752941 0.752941 0.752941
vn -0.000009 0.000007 1.000000
v 100.000000 -32.800499 -59.199100 0.752941 0.752941 0.752941
vn -0.000011 -0.000004 1.000000
v 71.428596 -32.800499 -59.199299 0.752941 0.752941 0.752941
vn 0.000007 -0.707097 0.707117
v 100.000000 0.799059 -59.199600 0.752941 0.752941 0.752941
vn -0.000006 -0.707110 0.707103
v 71.428596 0.799123 -59.198799 0.752941 0.752941 0.752941
vn -0.000008 -0.000003 1.000000
v 42.857101 -32.799801 -59.200001 0.752941 0.752941 0.752941
vn 0.000007 -0.707112 0.707102
v 42.857399 0.799348 -59.199699 0.752941 0.752941 0.752941
vn 0.000009 -0.000001 1.000000
v 14.285600 -32.799900 -59.199799 0.752941 0.752941 0.752941
vn 0.000005 -0.707103 0.707111
v 14.286200 0.798591 -59.199299 0.752941 0.752941 0.752941
vn -0.000009 0.000007 1.000000
v -14.286000 -32.799900 -59.199402 0.752941 0.752941 0.752941
vn -0.000012 -0.707083 0.707131
v -14.284900 0.798373 -59.200001 0.752941 0.752941 0.752941
vn -0.000001 0.000003 1.000000
v -42.856400 -32.801399 -59.200199 0.752941 0.752941 0.752941
vn 0.000013 -0.707113 0.707100
v -42.856800 0.798844 -59.199299 0.752941 0.752941 0.752941
vn -0.000004 0.000002 1.000000
v -71.427803 -32.801601 -59.199799 0.752941 0.752941 0.752941
vn -0.000004 -0.707111 0.707103
v -71.428101 0.798572 -59.199299 0.752941 0.752941 0.752941
vn -0.000026 0.000012 1.000000
v -99.999298 -32.801102 -59.200500 0.752941 0.752941 0.752941
vn -0.000029 -0.707101 0.707113
v -99.999100 0.798490 -59.200199 0.752941 0.752941 0.752941
vn -0.000020 0.000013 1.000000
v 42.856998 -100.000000 -59.199402 0.752941 0.752941 0.752941
vn -0.000005 0.000002 1.000000
v 42.857101 -66.399902 -59.200001 0.752941 0.752941 0.752941
vn 0.000009 -0.000009 1.000000
v 14.285800 -66.400597 -59.199299 0.752941 0.752941 0.752941
vn -0.000002 -0.000011 1.000000
v -14.285700 -66.400497 -59.199402 0.752941 0.752941 0.752941
vn 0.000005 -0.000003 1.000000
v -42.857101 -66.400398 -59.199501 0.752941 0.752941 0.752941
vn 0.000003 0.000010 1.000000
v -71.428398 -66.401001 -59.199200 0.752941 0.752941 0.752941
vn -0.000008 0.000011 1.000000
v -99.999702 -66.401100 -59.199299 0.752941 0.752941 0.752941
vn -0.000001 -0.000017 1.000000
v 14.285800 -99.999901 -59.200298 0.752941 0.752941 0.752941
vn -0.000005 -0.000025 1.000000
v -14.285500 -100.000000 -59.200199 0.752941 0.752941 0.752941
vn 0.000021 -0.000028 1.000000
v -42.857101 -99.999702 -59.200500 0.752941 0.752941 0.752941
vn 0.000011 -0.000006 1.000000
v -71.428497 -100.000999 -59.199100 0.752941 0.752941 0.752941
vn -0.000007 0.000000 1.000000
v -100.000000 -99.999603 -59.199402 0.752941 0.752941 0.752941
vn 0.000010 -1.000000 0.000021
v -99.999397 0.798870 59.999901 0.752941 0.752941 0.752941
vn 0.000012 -1.000000 0.000011
v -71.428001 0.799144 59.999599 0.752941 0.752941 0.752941
vn 0.000021 -1.000000 0.000005
v -99.999199 0.798234 30.200300 0.752941 0.752941 0.752941
vn 0.000024 -1.000000 -0.000001
v -71.428001 0.798926 30.200100 0.752941 0.752941 0.752941
vn 0.000025 -1.000000 -0.000020
v -99.999100 0.798353 0.399976 0.752941 0.752941 0.752941
vn 0.000005 -1.000000 0.000002
v -71.427902 0.799073 0.399387 0.752941 0.752941 0.752941
vn -0.000010 -1.000000 0.000009
v -100.000000 0.799416 -29.399200 0.752941 0.752941 0.752941
vn -0.000003 -1.000000 0.000007
v -71.428299 0.798799 -29.399000 0.752941 0.752941 0.752941
vn 0.000014 -1.000000 -0.000003
v -42.856602 0.799316 -29.400400 0.752941 0.752941 0.752941
vn 0.000004 -1.000000 0.000012
v -14.285300 0.799545 -29.400400 0.752941 0.752941 0.752941
vn -0.000008 -1.000000 0.000020
v 14.285600 0.799694 -29.399401 0.752941 0.752941 0.752941
vn 0.000003 -1.000000 0.000006
v 42.857700 0.798825 -29.399799 0.752941 0.752941 0.752941
vn 0.000008 -1.000000 -0.000001
v 71.428596 0.799841 -29.399700 0.752941 0.752941 0.752941
vn -0.000013 -1.000000 0.000012
v 100.000000 0.799376 -29.400101 0.752941 0.752941 0.752941
vn 0.000003 -1.000000 -0.000008
v -42.856602 0.799368 59.999401 0.752941 0.752941 0.752941
vn 0.000001 -1.000000 0.000008
v -42.857201 0.799766 30.200399 0.752941 0.752941 0.752941
vn 0.000002 -1.000000 0.000007
v -42.856400 0.798624 0.400099 0.752941 0.752941 0.752941
vn 0.000011 -1.000000 -0.000010
v -14.285100 0.799235 0.399490 0.752941 0.752941 0.752941
vn 0.000009 -1.000000 -0.000012
v 14.286000 0.799523 0.399861 0.752941 0.752941 0.752941
vn -0.000010 -1.000000 0.000009
v 42.857498 0.799663 0.399621 0.752941 0.752941 0.752941
vn 0.000006 -1.000000 -0.000003
v 71.428902 0.799153 0.400284 0.752941 0.752941 0.752941
vn 0.000007 -1.000000 -0.000000
v 100.000000 0.799576 0.400315 0.752941 0.752941 0.752941
vn -0.000006 -1.000000 -0.000009
v -14.285100 0.799022 59.999599 0.752941 0.752941 0.752941
vn -0.000008 -1.000000 0.000003
v -14.285400 0.799232 30.200199 0.752941 0.752941 0.752941
vn 0.000006 -1.000000 -0.000006
v 14.286300 0.798896 30.200100 0.752941 0.752941 0.752941
vn 0.000008 -1.000000 -0.000005
v 42.857201 0.799560 30.200500 0.752941 0.752941 0.752941
vn 0.000000 -1.000000 0.000007
v 71.428703 0.799254 30.200701 0.752941 0.752941 0.752941
vn 0.000018 -1.000000 -0.000000
v 100.000000 0.799812 30.199800 0.752941 0.752941 0.752941
vn -0.000000 -1.000000 0.000004
v 14.286000 0.799144 60.000301 0.752941 0.752941 0.752941
vn 0.000017 -1.000000 -0.000006
v 42.857498 0.799238 60.000198 0.752941 0.752941 0.752941
vn -0.000001 -1.000000 0.000012
v 71.428497 0.799840 60.000401 0.752941 0.752941 0.752941
vn 0.000006 -1.000000 0.000007
v 100.000000 0.799634 59.999401 0.752941 0.752941 0.752941
vn 0.000000 0.000000 0.000000
v -100.000000 -99.999603 -59.199600 0.752941 0.752941 0.752941
vn 0.000000 0.000000 0.000000
v -71.428497 -100.000999 -59.199299 0.752941 0.752941 0.752941
vn 0.000000 0.000000 0.000000
v -42.857101 -99.999702 -59.200699 0.752941 0.752941 0.752941
vn 0.000000 0.000000 0.000000
v -14.285500 -100.000000 -59.200401 0.752941 0.752941 0.752941
vn 0.000000 0.000000 0.000000
v 14.285800 -99.999901 -59.200500 0.752941 0.752941 0.752941
vn 0.000000 0.000000 0.000000
v 42.856998 -100.000000 -59.199600 0.752941 0.752941 0.752941
vn 0.000000 0.000000 0.000000
v 71.427902 -99.999100 -59.199600 0.752941 0.752941 0.752941
vn 0.000000 0.000000 0.000000
v 99.999901 -99.999603 -59.200401 0.752941 0.752941 0.752941
vn 0.000000 0.000000 0.000000
v 99.999397 -66.399597 -59.199200 0.752941 0.752941 0.752941
vn 0.000000 0.000000 0.000000
v 71.428200 -66.399696 -59.199600 0.752941 0.752941 0.752941
vn 0.000000 0.000000 0.000000
v 42.857101 -66.399902 -59.200199 0.752941 0.752941 0.752941
vn 0.000000 0.000000 0.000000
v 14.285800 -66.400597 -59.199501 0.752941 0.752941 0.752941
vn 0.000000 0.000000 0.000000
v -14.285700 -66.400497 -59.199600 0.752941 0.752941 0.752941
vn 0.000000 0.000000 0.000000
v -42.857101 -66.400398 -59.199699 0.752941 0.752941 0.752941
vn 0.000000 0.000000 0.000000
v -71.428398 -66.401001 -59.199402 0.752941 0.752941 0.752941
vn 0.000000 0.000000 0.000000
v -99.999702 -66.401100 -59.199501 0.752941 0.752941 0.752941
vn 0.000000 0.000000 0.000000
v 100.000000 -32.800499 -59.199299 0.752941 0.752941 0.752941
vn 0.000000 0.000000 0.000000
v 71.428596 -32.800499 -59.199501 0.752941 0.752941 0.752941
vn 0.000000 0.000000 0.000000
v 42.857101 -32.799801 -59.200199 0.752941 0.752941 0.752941
vn 0.000000 0.000000 0.000000
v 14.285600 -32.799900 -59.200001 0.752941 0.752941 0.752941
vn 0.000000 0.000000 0.000000
v -14.286000 -32.799900 -59.199600 0.752941 0.752941 0.752941
vn 0.000000 0.000000 0.000000
v -42.856400 -32.801399 -59.200401 0.752941 0.752941 0.752941
vn 0.000000 0.000000 0.000000
v -71.427803 -32.801601 -59.200001 0.752941 0.752941 0.752941
vn 0.000000 0.000000 0.000000
v -99.999298 -32.801102 -59.200699 0.752941 0.752941 0.752941
vn 0.000000 0.000000 0.000000
v -71.428101 0.798572 -59.199501 0.752941 0.752941 0.752941
vn 0.000000 0.000000 0.000000
v -99.999100 0.798490 -59.200401 0.752941 0.752941 0.752941
vn 0.000000 0.000000 0.000000
v -42.856800 0.798844 -59.199501 0.752941 0.752941 0.752941
vn 0.000000 0.000000 0.000000
v -14.284900 0.798373 -59.200199 0.752941 0.752941 0.752941
vn 0.000000 0.000000 0.000000
v 14.286200 0.798591 -59.199501 0.752941 0.752941 0.752941
vn 0.000000 0.000000 0.000000
v 42.857399 0.799348 -59.199902 0.752941 0.752941 0.752941
vn 0.000000 0.000000 0.000000
v 71.428596 0.799123 -59.199001 0.752941 0.752941 0.752941
vn 0.000000 0.000000 0.000000
v 100.000000 0.799059 -59.199799 0.752941 0.752941 0.752941
vn 0.000000 0.000000 0.000000
v 100.000000 0.799376 -29.400299 0.752941 0.752941 0.752941
vn 0.000000 0.000000 0.000000
v 71.428596 0.799841 -29.400000 0.752941 0.752941 0.752941
vn 0.000000 0.000000 0.000000
v 42.857700 0.798825 -29.400000 0.752941 0.752941 0.752941
vn 0.000000 0.000000 0.000000
v 14.285600 0.799694 -29.399599 0.752941 0.752941 0.752941
vn 0.000000 0.000000 0.000000
v -14.285300 0.799545 -29.400600 0.752941 0.752941 0.752941
vn 0.000000 0.000000 0.000000
v -42.856602 0.799316 -29.400600 0.752941 0.752941 0.752941
vn 0.000000 0.000000 0.000000
v -71.428299 0.798799 -29.399200 0.752941 0.752941 0.752941
vn 0.000000 0.000000 0.000000
v -100.000000 0.799416 -29.399401 0.752941 0.752941 0.752941
vn 0.000000 0.000000 0.000000
v 100.000000 0.799576 0.400115 0.752941 0.752941 0.752941
vn 0.000000 0.000000 0.000000
v 71.428902 0.799153 0.400084 0.752941 0.752941 0.752941
vn 0.000000 0.000000 0.000000
v 42.857498 0.799663 0.399421 0.752941 0.752941 0.752941
vn 0.000000 0.000000 0.000000
v 14.286000 0.799523 0.399661 0.752941 0.752941 0.752941
vn 0.000000 0.000000 0.000000
v -14.285100 0.799235 0.399290 0.752941 0.752941 0.752941
vn 0.000000 0.000000 0.000000
v -42.856400 0.798624 0.399899 0.752941 0.752941 0.752941
vn 0.000000 0.000000 0.000000
v -71.427902 0.799073 0.399187 0.752941 0.752941 0.752941
vn 0.000000 0.000000 0.000000
v -99.999100 0.798353 0.399776 0.752941 0.752941 0.752941
vn 0.000000 0.000000 0.000000
v 100.000000 0.799812 30.199600 0.752941 0.752941 0.752941
vn 0.000000 0.000000 0.000000
v 71.428703 0.799254 30.200500 0.752941 0.752941 0.752941
vn 0.000000 0.000000 0.000000
v 42.857201 0.799560 30.200300 0.752941 0.752941 0.752941
vn 0.000000 0.000000 0.000000
v 14.286300 0.798896 30.199900 0.752941 0.752941 0.752941
vn 0.000000 0.000000 0.000000
v -14.285400 0.799232 30.200001 0.752941 0.752941 0.752941
vn 0.000000 0.000000 0.000000
v -42.857201 0.799766 30.200199 0.752941 0.752941 0.752941
vn 0.000000 0.000000 0.000000
v -71.428001 0.798926 30.199900 0.752941 0.752941 0.752941
vn 0.000000 0.000000 0.000000
v -99.999199 0.798234 30.200100 0.752941 0.752941 0.752941
vn 0.000000 0.000000 0.000000
v 100.000000 0.799634 59.999199 0.752941 0.752941 0.752941
vn 0.000000 0.000000 0.000000
v 71.428497 0.799840 60.000198 0.752941 0.752941 0.752941
vn 0.000000 0.000000 0.000000
v 42.857498 0.799238 60.000000 0.752941 0.752941 0.752941
vn 0.000000 0.000000 0.000000
v 14.286000 0.799144 60.000099 0.752941 0.752941 0.752941
vn 0.000000 0.000000 0.000000
v -14.285100 0.799022 59.999401 0.752941 0.752941 0.752941
vn 0.000000 0.000000 0.000000
v -42.856602 0.799368 59.999199 0.752941 0.752941 0.752941
vn 0.000000 0.000000 0.000000
v -71.428001 0.799144 59.999401 0.752941 0.752941 0.752941
vn 0.000000 0.000000 0.000000
v -99.999397 0.798870 59.999699 0.752941 0.752941 0.752941
# 128 vertices, 0 vertices normals

f 2//2 1//1 3//3
f 2//2 3//3 4//4
f 4//4 3//3 5//5
f 4//4 5//5 6//6
f 6//6 5//5 7//7
f 6//6 7//7 8//8
f 6//6 8//8 9//9
f 9//9 8//8 10//10
f 9//9 10//10 11//11
f 11//11 10//10 12//12
f 11//11 12//12 13//13
f 13//13 12//12 14//14
f 13//13 14//14 15//15
f 15//15 14//14 16//16
f 15//15 16//16 17//17
f 17//17 16//16 18//18
f 17//17 18//18 19//19
f 19//19 18//18 20//20
f 21//21 2//2 4//4
f 21//21 4//4 22//22
f 22//22 4//4 6//6
f 22//22 6//6 9//9
f 22//22 9//9 23//23
f 23//23 9//9 11//11
f 23//23 11//11 24//24
f 24//24 11//11 13//13
f 24//24 13//13 25//25
f 25//25 13//13 15//15
f 25//25 15//15 26//26
f 26//26 15//15 17//17
f 26//26 17//17 27//27
f 27//27 17//17 19//19
f 28//28 21//21 22//22
f 28//28 22//22 23//23
f 28//28 23//23 29//29
f 29//29 23//23 24//24
f 29//29 24//24 30//30
f 30//30 24//24 25//25
f 30//30 25//25 31//31
f 31//31 25//25 26//26
f 31//31 26//26 32//32
f 32//32 26//26 27//27
f 34//34 33//33 35//35
f 34//34 35//35 36//36
f 36//36 35//35 37//37
f 36//36 37//37 38//38
f 38//38 37//37 39//39
f 38//38 39//39 40//40
f 40//40 39//39 20//20
f 40//40 20//20 18//18
f 40//40 18//18 41//41
f 41//41 18//18 16//16
f 41//41 16//16 42//42
f 42//42 16//16 14//14
f 42//42 14//14 43//43
f 43//43 14//14 12//12
f 43//43 12//12 44//44
f 44//44 12//12 10//10
f 44//44 10//10 45//45
f 45//45 10//10 8//8
f 45//45 8//8 46//46
f 46//46 8//8 7//7
f 47//47 34//34 36//36
f 47//47 36//36 48//48
f 48//48 36//36 38//38
f 48//48 38//38 49//49
f 49//49 38//38 40//40
f 49//49 40//40 41//41
f 49//49 41//41 50//50
f 50//50 41//41 42//42
f 50//50 42//42 51//51
f 51//51 42//42 43//43
f 51//51 43//43 52//52
f 52//52 43//43 44//44
f 52//52 44//44 53//53
f 53//53 44//44 45//45
f 53//53 45//45 54//54
f 54//54 45//45 46//46
f 55//55 47//47 48//48
f 55//55 48//48 56//56
f 56//56 48//48 49//49
f 56//56 49//49 50//50
f 56//56 50//50 57//57
f 57//57 50//50 51//51
f 57//57 51//51 58//58
f 58//58 51//51 52//52
f 58//58 52//52 59//59
f 59//59 52//52 53//53
f 59//59 53//53 60//60
f 60//60 53//53 54//54
f 61//61 55//55 56//56
f 61//61 56//56 57//57
f 61//61 57//57 62//62
f 62//62 57//57 58//58
f 62//62 58//58 63//63
f 63//63 58//58 59//59
f 63//63 59//59 64//64
f 64//64 59//59 60//60
l 65 66
l 66 67
l 67 68
l 68 69
l 69 70
l 70 71
l 71 72
l 72 73
l 73 71
l 71 74
l 74 70
l 70 75
l 75 69
l 69 76
l 76 68
l 68 77
l 77 67
l 67 78
l 78 66
l 66 79
l 79 65
l 65 80
l 80 79
l 79 78
l 78 77
l 77 76
l 76 75
l 75 74
l 74 73
l 73 81
l 81 74
l 74 82
l 82 75
l 75 83
l 83 76
l 76 84
l 84 77
l 77 85
l 85 78
l 78 86
l 86 79
l 79 87
l 87 80
l 80 88
l 88 89
l 89 90
l 90 88
l 88 87
l 87 91
l 91 89
l 89 87
l 87 86
l 86 92
l 92 91
l 91 86
l 86 85
l 85 93
l 93 92
l 92 85
l 85 84
l 84 94
l 94 93
l 93 84
l 84 83
l 83 95
l 95 94
l 94 83
l 83 82
l 82 81
l 81 96
l 96 82
l 82 95
l 95 96
l 96 97
l 97 95
l 95 98
l 98 94
l 94 99
l 99 93
l 93 100
l 100 92
l 92 101
l 101 91
l 91 102
l 102 89
l 89 103
l 103 90
l 90 104
l 104 103
l 103 102
l 102 101
l 101 100
l 100 99
l 99 98
l 98 97
l 97 105
l 105 98
l 98 106
l 106 99
l 99 107
l 107 100
l 100 108
l 108 101
l 101 109
l 109 102
l 102 110
l 110 103
l 103 111
l 111 104
l 104 112
l 112 111
l 111 110
l 110 109
l 109 108
l 108 107
l 107 106
l 106 105
l 105 113
l 113 106
l 106 114
l 114 107
l 107 115
l 115 108
l 108 116
l 116 109
l 109 117
l 117 110
l 110 118
l 118 111
l 111 119
l 119 112
l 112 120
l 120 119
l 119 118
l 118 117
l 117 116
l 116 115
l 115 114
l 114 113
l 113 121
l 121 114
l 114 122
l 122 115
l 115 123
l 123 116
l 116 124
l 124 117
l 117 125
l 125 118
l 118 126
l 126 119
l 119 127
l 127 120
l 120 128
l 128 127
l 127 126
l 126 125
l 125 124
l 124 123
l 123 122
l 122 121
# 98 faces, 0 coords texture

# End of File
