####
#
# OBJ File Generated by Meshlab
#
####
# Object Shelf_ElementSizing_50.obj
#
# Vertices: 50
# Faces: 32
#
####
vn 0.000002 -0.000006 1.000000
v 99.999901 -99.999603 -59.200199 0.752941 0.752941 0.752941
vn 0.000011 -0.000015 1.000000
v 49.999599 -99.999199 -59.200100 0.752941 0.752941 0.752941
vn 0.000011 -0.000009 1.000000
v 100.000000 -49.599998 -59.199902 0.752941 0.752941 0.752941
vn -0.000001 -0.000001 1.000000
v 49.999401 -49.599400 -59.199200 0.752941 0.752941 0.752941
vn 0.000001 -0.707103 0.707111
v 100.000000 0.799059 -59.199600 0.752941 0.752941 0.752941
vn -0.000001 -0.707104 0.707110
v 50.000301 0.799254 -59.199799 0.752941 0.752941 0.752941
vn -0.000008 -0.000001 1.000000
v 0.000232 -49.600300 -59.200199 0.752941 0.752941 0.752941
vn 0.000008 -0.707118 0.707096
v -0.000024 0.799231 -59.198898 0.752941 0.752941 0.752941
vn 0.000002 -0.000010 1.000000
v -49.999699 -49.600201 -59.200401 0.752941 0.752941 0.752941
vn 0.000003 -0.707116 0.707097
v -49.999802 0.798685 -59.198799 0.752941 0.752941 0.752941
vn -0.000002 -0.000001 1.000000
v -99.999702 -49.600399 -59.200100 0.752941 0.752941 0.752941
vn -0.000015 -0.707096 0.707117
v -99.999100 0.798490 -59.200199 0.752941 0.752941 0.752941
vn -0.000006 0.000007 1.000000
v -0.000372 -99.999702 -59.199402 0.752941 0.752941 0.752941
vn 0.000001 0.000011 1.000000
v -50.000401 -99.999397 -59.199902 0.752941 0.752941 0.752941
vn 0.000008 0.000012 1.000000
v -100.000000 -99.999603 -59.199402 0.752941 0.752941 0.752941
vn 0.000010 -1.000000 0.000009
v -99.999397 0.798870 59.999901 0.752941 0.752941 0.752941
vn 0.000008 -1.000000 0.000009
v -49.999699 0.799384 60.000198 0.752941 0.752941 0.752941
vn 0.000010 -1.000000 0.000003
v -99.999100 0.798353 0.399976 0.752941 0.752941 0.752941
vn 0.000011 -1.000000 0.000004
v -49.999298 0.798819 0.399833 0.752941 0.752941 0.752941
vn 0.000004 -1.000000 0.000006
v 0.000310 0.799636 0.399687 0.752941 0.752941 0.752941
vn -0.000002 -1.000000 0.000007
v 50.000198 0.799084 0.400825 0.752941 0.752941 0.752941
vn 0.000007 -1.000000 0.000002
v 100.000000 0.799576 0.400315 0.752941 0.752941 0.752941
vn 0.000010 -1.000000 0.000004
v 0.000024 0.799715 60.000301 0.752941 0.752941 0.752941
vn -0.000005 -1.000000 0.000014
v 50.000099 0.800190 59.999599 0.752941 0.752941 0.752941
vn -0.000002 -1.000000 0.000011
v 100.000000 0.799634 59.999401 0.752941 0.752941 0.752941
vn 0.000000 0.000000 0.000000
v -100.000000 -99.999603 -59.199600 0.752941 0.752941 0.752941
vn 0.000000 0.000000 0.000000
v -50.000401 -99.999397 -59.200100 0.752941 0.752941 0.752941
vn 0.000000 0.000000 0.000000
v -0.000372 -99.999702 -59.199600 0.752941 0.752941 0.752941
vn 0.000000 0.000000 0.000000
v 49.999599 -99.999199 -59.200298 0.752941 0.752941 0.752941
vn 0.000000 0.000000 0.000000
v 99.999901 -99.999603 -59.200401 0.752941 0.752941 0.752941
vn 0.000000 0.000000 0.000000
v 100.000000 -49.599998 -59.200100 0.752941 0.752941 0.752941
vn 0.000000 0.000000 0.000000
v 49.999401 -49.599400 -59.199402 0.752941 0.752941 0.752941
vn 0.000000 0.000000 0.000000
v 0.000232 -49.600300 -59.200401 0.752941 0.752941 0.752941
vn 0.000000 0.000000 0.000000
v -49.999699 -49.600201 -59.200600 0.752941 0.752941 0.752941
vn 0.000000 0.000000 0.000000
v -99.999702 -49.600399 -59.200298 0.752941 0.752941 0.752941
vn 0.000000 0.000000 0.000000
v -49.999802 0.798685 -59.199001 0.752941 0.752941 0.752941
vn 0.000000 0.000000 0.000000
v -99.999100 0.798490 -59.200401 0.752941 0.752941 0.752941
vn 0.000000 0.000000 0.000000
v -0.000024 0.799231 -59.199100 0.752941 0.752941 0.752941
vn 0.000000 0.000000 0.000000
v 50.000301 0.799254 -59.200001 0.752941 0.752941 0.752941
vn 0.000000 0.000000 0.000000
v 100.000000 0.799059 -59.199799 0.752941 0.752941 0.752941
vn 0.000000 0.000000 0.000000
v 100.000000 0.799576 0.400115 0.752941 0.752941 0.752941
vn 0.000000 0.000000 0.000000
v 50.000198 0.799084 0.400625 0.752941 0.752941 0.752941
vn 0.000000 0.000000 0.000000
v 0.000310 0.799636 0.399487 0.752941 0.752941 0.752941
vn 0.000000 0.000000 0.000000
v -49.999298 0.798819 0.399633 0.752941 0.752941 0.752941
vn 0.000000 0.000000 0.000000
v -99.999100 0.798353 0.399776 0.752941 0.752941 0.752941
vn 0.000000 0.000000 0.000000
v 100.000000 0.799634 59.999199 0.752941 0.752941 0.752941
vn 0.000000 0.000000 0.000000
v 50.000099 0.800190 59.999401 0.752941 0.752941 0.752941
vn 0.000000 0.000000 0.000000
v 0.000024 0.799715 60.000099 0.752941 0.752941 0.752941
vn 0.000000 0.000000 0.000000
v -49.999699 0.799384 60.000000 0.752941 0.752941 0.752941
vn 0.000000 0.000000 0.000000
v -99.999397 0.798870 59.999699 0.752941 0.752941 0.752941
# 50 vertices, 0 vertices normals

f 2//2 1//1 3//3
f 2//2 3//3 4//4
f 4//4 3//3 5//5
f 4//4 5//5 6//6
f 4//4 6//6 7//7
f 7//7 6//6 8//8
f 7//7 8//8 9//9
f 9//9 8//8 10//10
f 9//9 10//10 11//11
f 11//11 10//10 12//12
f 13//13 2//2 4//4
f 13//13 4//4 7//7
f 13//13 7//7 14//14
f 14//14 7//7 9//9
f 14//14 9//9 15//15
f 15//15 9//9 11//11
f 17//17 16//16 18//18
f 17//17 18//18 19//19
f 19//19 18//18 12//12
f 19//19 12//12 10//10
f 19//19 10//10 20//20
f 20//20 10//10 8//8
f 20//20 8//8 21//21
f 21//21 8//8 6//6
f 21//21 6//6 22//22
f 22//22 6//6 5//5
f 23//23 17//17 19//19
f 23//23 19//19 20//20
f 23//23 20//20 24//24
f 24//24 20//20 21//21
f 24//24 21//21 25//25
f 25//25 21//21 22//22
l 26 27
l 27 28
l 28 29
l 29 30
l 30 31
l 31 29
l 29 32
l 32 28
l 28 33
l 33 27
l 27 34
l 34 26
l 26 35
l 35 36
l 36 37
l 37 35
l 35 34
l 34 38
l 38 36
l 36 34
l 34 33
l 33 39
l 39 38
l 38 33
l 33 32
l 32 31
l 31 40
l 40 32
l 32 39
l 39 40
l 40 41
l 41 39
l 39 42
l 42 38
l 38 43
l 43 36
l 36 44
l 44 37
l 37 45
l 45 44
l 44 43
l 43 42
l 42 41
l 41 46
l 46 42
l 42 47
l 47 43
l 43 48
l 48 44
l 44 49
l 49 45
l 45 50
l 50 49
l 49 48
l 48 47
l 47 46
# 32 faces, 0 coords texture

# End of File
